<?xml version="1.0" encoding="UTF-8"?>
<svg width="36px" height="56px" viewBox="0 0 36 56" version="1.1" xmlns="http://www.w3.org/2000/svg" xmlns:xlink="http://www.w3.org/1999/xlink">
    <title>sc-logomark</title>
    <g id="Page-1" stroke="none" stroke-width="1" fill="none" fill-rule="evenodd">
        <g id="sc-logomark" transform="translate(-0.000000, 0.000000)">
            <path d="M2.34876551,26.7079035 L32.7554468,46.6278262 C35.1008477,48.1659899 35.7626053,51.3255344 34.2335239,53.6848662 C32.7044425,56.0441981 29.563554,56.7098864 27.2181531,55.1717226 L3.78974231,39.828273 C3.78974231,39.828273 0.851188125,38.1294093 0.178352836,34.963477 C-0.766223027,30.5184164 2.34876551,26.7079035 2.34876551,26.7079035 Z M29.1351797,10.9268295 C31.8924672,10.9290165 34.1265381,13.1781297 34.1265381,15.9517955 C34.1265381,18.7254613 31.8924672,20.9745745 29.1351797,20.9767613 C28.0993801,20.9696498 27.0902171,20.645863 26.2416098,20.0483682 L26.2416098,20.0483682 L19.9886143,15.9518908 L26.2416098,11.8551603 C27.0869168,11.250997 28.0982326,10.9265412 29.1351797,10.9268295 Z" id="C" fill="#38D200"></path>
            <path d="M4.9856956,45.9896844 C6.01947857,45.9967864 7.02667316,46.3192948 7.87363137,46.9144149 L7.87363137,46.9144149 L14.1146277,50.9947424 L7.87363137,55.0753282 C7.02997198,55.6771007 6.02062581,56.0002774 4.9856956,55.9999998 C2.23217195,55.9999998 8.8817842e-16,53.7591142 8.8817842e-16,50.994842 C8.8817842e-16,48.2305698 2.23217195,45.9896844 4.9856956,45.9896844 Z M24.8340769,2.31173903 C26.3570846,4.66383661 25.6923887,7.81004962 23.349437,9.33900252 L12.5750796,16.3824976 L30.9331805,28.3849167 C30.9331805,28.3849167 34.2375251,30.2860126 34.8887029,33.4941217 C35.7587149,37.7798065 32.9823604,41.3425413 32.7444995,41.6379924 L32.7283706,41.6578008 L32.7283706,41.6578008 L5.05191885,23.563228 C5.05191885,23.563228 1.46990647,21.3919021 1.46990647,16.3700743 C1.46990647,11.3649477 5.05046534,9.22125314 5.05046534,9.22125314 L17.8341383,0.821303622 C20.17709,-0.707649206 23.3110693,-0.040358549 24.8340769,2.31173903 Z" id="S" fill="#0473EA"></path>
        </g>
    </g>
</svg>