<svg width="280" height="110" viewBox="0 0 280 110" fill="none" xmlns="http://www.w3.org/2000/svg">
<path d="M53.6793 107.884L7.80512 78.0185C7.80512 78.0185 2.05159 74.7113 0.734119 68.5488C-1.11556 59.897 4.98344 52.4796 4.98344 52.4796L64.5216 91.2539C69.1145 94.2474 70.3685 100.371 67.4161 104.99C64.3834 109.735 58.1509 110.782 53.6793 107.884Z" fill="#38D200"/>
<path d="M10.2271 46.079C10.2271 46.079 3.20001 41.8362 3.20001 32.022C3.20001 22.2414 10.2243 18.0509 10.2243 18.0509L35.3038 1.63713C37.5111 0.202333 40.198 -0.296856 42.7734 0.249384C45.3487 0.795624 47.6016 2.34255 49.0364 4.54985C50.4712 6.75715 50.9704 9.44402 50.4242 12.0194C49.8779 14.5947 48.331 16.8476 46.1237 18.2824L24.9863 32.0463L61.0014 55.502C61.0014 55.502 67.4842 59.2164 68.7615 65.4862C70.544 74.2332 64.5234 81.4396 64.5234 81.4396L10.2271 46.079Z" fill="#0473EA"/>
<path d="M57.4328 22.2656C55.078 22.2656 53.402 23.0126 51.7671 24.0723L39.5233 32.0462L51.7671 40.0201C53.4179 41.0836 55.1499 41.8278 57.4328 41.8278C58.7254 41.8404 60.0076 41.5968 61.2053 41.1109C62.4031 40.625 63.4927 39.9065 64.4112 38.997C65.3296 38.0875 66.0587 37.005 66.5562 35.812C67.0538 34.619 67.31 33.3393 67.31 32.0467C67.31 30.7541 67.0538 29.4744 66.5562 28.2814C66.0587 27.0884 65.3296 26.0059 64.4112 25.0964C63.4927 24.1869 62.4031 23.4684 61.2053 22.9825C60.0076 22.4966 58.7254 22.253 57.4328 22.2656" fill="#38D200"/>
<path d="M10.0936 109.467C12.4484 109.467 14.1245 108.72 15.7585 107.66L28.0022 99.6853L15.7585 91.7123C14.1086 90.6488 12.3766 89.9046 10.0936 89.9046C8.80111 89.892 7.51891 90.1357 6.32114 90.6216C5.12336 91.1074 4.03376 91.8259 3.11532 92.7354C2.19687 93.6449 1.4678 94.7275 0.97024 95.9204C0.472678 97.1134 0.216492 98.3932 0.216492 99.6857C0.216492 100.978 0.472678 102.258 0.97024 103.451C1.4678 104.644 2.19687 105.727 3.11532 106.636C4.03376 107.546 5.12336 108.264 6.32114 108.75C7.51891 109.236 8.80111 109.479 10.0936 109.467Z" fill="#0473EA"/>
<path d="M108.368 78.42C110.957 78.42 113.371 77.7179 115.257 76.0941V79.7356C113.15 81.1838 110.649 81.7982 108.016 81.7982C101.386 81.7982 96.7823 77.1903 96.7823 70.5638C96.7823 63.9811 101.521 59.3741 108.104 59.3741C110.693 59.3741 113.106 60.1211 115.037 61.5684V65.5609C113.326 63.7187 110.957 62.7533 108.323 62.7533C103.715 62.7533 100.468 65.9568 100.468 70.5638C100.468 75.1707 103.76 78.42 108.368 78.42Z" fill="#525355"/>
<path d="M122.761 81.4041H119.206V52.9119L122.761 55.109V63.4563C124.385 60.9549 126.974 59.3751 130.265 59.3751C135.707 59.3751 138.603 63.3676 138.603 68.6777V81.4041H135.005V69.292C135.005 65.0791 133.162 62.842 129.387 62.842C125.394 62.842 122.758 66.264 122.758 70.5647L122.761 81.4041Z" fill="#525355"/>
<path d="M160.676 77.7151C158.878 80.2604 156.113 81.7963 152.734 81.7963C146.415 81.7963 141.895 77.1007 141.895 70.6936C141.895 64.1576 146.415 59.3723 152.734 59.3723C156.113 59.3723 158.878 60.9521 160.676 63.5413V59.7673H164.275V81.4014H160.676V77.7151ZM145.581 70.6497C145.581 75.1259 148.697 78.4172 153.085 78.4172C157.517 78.4172 160.676 75.1259 160.676 70.6497C160.676 66.0857 157.517 62.7514 153.085 62.7514C148.697 62.7542 145.581 66.0885 145.581 70.6525V70.6497Z" fill="#525355"/>
<path d="M173.359 81.4041H169.804V59.77H173.359V64.377C175.07 61.1734 177.835 59.3751 181.258 59.3751V63.4563C176.957 62.8419 173.359 65.7383 173.359 71.0913V81.4041Z" fill="#525355"/>
<path d="M217.681 71.969H200.61C201.137 75.8747 204.209 78.4639 208.509 78.4639C211.274 78.4639 213.951 77.674 216.233 76.0503V79.4733C213.907 81.0531 211.274 81.7991 208.509 81.7991C201.707 81.7991 196.838 77.4107 196.838 70.7813C196.838 64.2864 200.963 59.3723 207.502 59.3723C213.733 59.3723 217.815 63.9792 217.815 70.167C217.816 70.7702 217.771 71.3725 217.681 71.969V71.969ZM200.654 69.0745H214.039C213.688 65.3882 211.362 62.6683 207.544 62.6683C203.594 62.6664 201.224 65.4312 200.654 69.0726V69.0745Z" fill="#525355"/>
<path d="M225.273 81.4041H221.718V59.77H225.273V64.377C226.984 61.1734 229.748 59.3751 233.171 59.3751V63.4563C228.872 62.8419 225.273 65.7383 225.273 71.0913V81.4041Z" fill="#525355"/>
<path d="M254.28 71.969H237.21C237.735 75.8747 240.808 78.4639 245.108 78.4639C247.873 78.4639 250.55 77.674 252.832 76.0503V79.4733C250.506 81.0531 247.873 81.7991 245.108 81.7991C238.306 81.7991 233.437 77.4107 233.437 70.7813C233.437 64.2864 237.561 59.3723 244.1 59.3723C250.331 59.3723 254.412 63.9792 254.412 70.167C254.414 70.7701 254.369 71.3725 254.28 71.969ZM237.254 69.0745H250.637C250.286 65.3882 247.96 62.6683 244.143 62.6683C240.194 62.6664 237.826 65.4312 237.254 69.0726V69.0745Z" fill="#525355"/>
<path d="M275.618 77.6889C273.864 80.2781 271.055 81.8579 267.676 81.8579C261.356 81.8579 256.836 77.1623 256.836 70.7552C256.836 64.2192 261.356 59.433 267.676 59.433C271.055 59.433 273.864 61.0576 275.618 63.6898V52.9175L279.217 55.1155V81.4032H275.618V77.6889ZM260.523 70.7122C260.523 75.1884 263.638 78.4798 268.027 78.4798C272.459 78.4798 275.618 75.1884 275.618 70.7122C275.618 66.1482 272.459 62.813 268.027 62.813C263.638 62.8121 260.523 66.1473 260.523 70.7122Z" fill="#525355"/>
<path d="M187.469 74.2127C187.469 77.2408 189.312 78.4256 191.638 78.4256C193.445 78.4432 195.211 77.8903 196.685 76.8458V80.3127C195.191 81.4098 193.13 81.8486 191.331 81.8486C186.723 81.8486 183.914 79.7861 183.914 73.9494V52.9073L187.469 55.1043V74.2127Z" fill="#525355"/>
<path d="M193.215 59.4871C192.604 59.0909 191.861 58.9535 191.149 59.1053C190.437 59.257 189.814 59.6854 189.418 60.2962C189.022 60.907 188.885 61.6501 189.036 62.3622C189.188 63.0743 189.616 63.6969 190.227 64.0931L190.303 64.1407C190.744 64.4234 191.258 64.5736 191.782 64.5736C192.306 64.5736 192.819 64.4234 193.261 64.1407L196.796 61.8737L193.215 59.4871Z" fill="#525355"/>
<path d="M104.199 47.2219C106.743 47.2219 108.587 46.1248 108.587 44.15C108.587 42.9651 107.973 42.0435 106.346 41.3852L101.211 39.3227C98.5778 38.1817 97.1296 36.6896 97.1296 33.881C97.1296 30.1069 100.158 27.7372 104.546 27.7372C107.09 27.7372 109.46 28.4393 111.128 29.712V33.4468C109.154 31.6915 106.739 30.6821 104.592 30.6821C102.309 30.6821 100.685 31.7353 100.685 33.4907C100.685 34.8072 101.3 35.5972 103.012 36.2554L108.147 38.318C110.911 39.5029 112.185 41.1705 112.185 43.4964C112.185 47.6215 108.849 50.1668 104.155 50.1668C101.301 50.1668 98.7123 49.3769 96.8262 47.9726V44.1061C99.1072 46.2564 101.653 47.2219 104.199 47.2219Z" fill="#525355"/>
<path d="M118.944 42.5263C118.944 45.5543 120.786 46.7392 123.113 46.7392C124.918 46.7554 126.682 46.2026 128.155 45.1593V48.6262C126.661 49.7233 124.599 50.1622 122.8 50.1622C118.192 50.1622 115.385 48.0996 115.385 42.263V23.402L118.939 21.2021L118.944 42.5263Z" fill="#525355"/>
<path d="M148.038 46.0809C146.239 48.6262 143.474 50.1621 140.095 50.1621C133.776 50.1621 129.256 45.4665 129.256 39.0594C129.256 32.5234 133.776 27.7372 140.095 27.7372C143.474 27.7372 146.239 29.317 148.038 31.9062V28.1349H151.637V49.7672H148.038V46.0809ZM132.942 39.0155C132.942 43.4917 136.058 46.783 140.446 46.783C144.879 46.783 148.038 43.4917 148.038 39.0155C148.038 34.4515 144.879 31.1163 140.446 31.1163C136.058 31.1163 132.942 34.4515 132.942 39.0155Z" fill="#525355"/>
<path d="M160.72 49.7672H157.165V28.1349H160.72V31.8212C162.344 29.3198 164.933 27.74 168.224 27.74C173.666 27.74 176.562 31.7335 176.562 37.0435V49.77H172.964V37.6588C172.964 33.4459 171.121 31.2078 167.347 31.2078C163.353 31.2078 160.717 34.6308 160.717 38.9315L160.72 49.7672Z" fill="#525355"/>
<path d="M198.636 45.9931C196.881 48.5823 194.072 50.1622 190.693 50.1622C184.374 50.1622 179.854 45.4665 179.854 39.0594C179.854 32.5234 184.374 27.7372 190.693 27.7372C194.072 27.7372 196.881 29.3609 198.636 31.994V23.3992L202.235 21.2021V49.7672H198.636V45.9931ZM183.54 39.0155C183.54 43.4917 186.656 46.7831 191.044 46.7831C195.477 46.7831 198.636 43.4917 198.636 39.0155C198.636 34.4515 195.477 31.1163 191.044 31.1163C186.659 31.1163 183.54 34.4515 183.54 39.0155Z" fill="#525355"/>
<path d="M264.463 45.9931C262.708 48.5823 259.899 50.1622 256.52 50.1622C250.2 50.1622 245.68 45.4665 245.68 39.0594C245.68 32.5234 250.2 27.7372 256.52 27.7372C259.899 27.7372 262.708 29.3609 264.463 31.994V23.3992L268.061 21.2021V49.7672H264.463V45.9931ZM249.367 39.0155C249.367 43.4917 252.482 46.7831 256.871 46.7831C261.303 46.7831 264.463 43.4917 264.463 39.0155C264.463 34.4515 261.303 31.1163 256.871 31.1163C252.485 31.1163 249.367 34.4515 249.367 39.0155Z" fill="#525355"/>
<path d="M224.879 46.0809C223.08 48.6262 220.315 50.1621 216.936 50.1621C210.617 50.1621 206.097 45.4665 206.097 39.0594C206.097 32.5234 210.617 27.7372 216.936 27.7372C220.315 27.7372 223.08 29.317 224.879 31.9062V28.1349H228.478V49.7672H224.879V46.0809ZM209.783 39.0155C209.783 43.4917 212.899 46.783 217.287 46.783C221.719 46.783 224.879 43.4917 224.879 39.0155C224.879 34.4515 221.719 31.1163 217.287 31.1163C212.896 31.1163 209.783 34.4515 209.783 39.0155V39.0155Z" fill="#525355"/>
<path d="M237.561 49.7672H234.006V28.1349H237.561V32.7428C239.272 29.5392 242.037 27.74 245.46 27.74V31.8212C241.159 31.2069 237.561 34.1032 237.561 39.4571V49.7672Z" fill="#525355"/>
<path d="M123.954 32.7428C124.257 32.9407 124.596 33.0768 124.952 33.1433C125.307 33.2097 125.673 33.2052 126.026 33.13C126.38 33.0548 126.716 32.9104 127.014 32.7051C127.312 32.4998 127.566 32.2376 127.762 31.9337C127.958 31.6297 128.093 31.29 128.157 30.934C128.222 30.578 128.215 30.2128 128.138 29.8593C128.061 29.5059 127.914 29.1711 127.707 28.8744C127.5 28.5777 127.237 28.3248 126.932 28.1303L126.856 28.0827C126.414 27.8018 125.9 27.6535 125.376 27.6553C124.851 27.6571 124.339 27.809 123.898 28.0929L120.365 30.3684L123.954 32.7428Z" fill="#525355"/>
</svg>
